<svg id="Layer_1" data-name="Layer 1" xmlns="http://www.w3.org/2000/svg" viewBox="0 0 892.97 317.3"><defs><style>.cls-1{fill:#3e6164;}.cls-2{fill:#333;}</style></defs><path class="cls-1" d="M654,272.19v9.92a39.78,39.78,0,0,1-39.66,39.66H297a39.78,39.78,0,0,1-39.66-39.66v-9.92a9.94,9.94,0,0,1,9.91-9.91H415.54c-.15,9,8.73,19.83,20.31,19.83h37.68c11.18,0,19.83-7.56,20.29-19.83H644.08A9.94,9.94,0,0,1,654,272.19Zm-39.66-29.75H297V34.21A29.83,29.83,0,0,1,326.78,4.47H584.59a29.83,29.83,0,0,1,29.75,29.74ZM574.67,44.13h-238V202.78h238Z" transform="translate(-4.59 -4.47)"/><path class="cls-2" d="M448.53,149.84l-28.6,28.6A14.81,14.81,0,0,1,399,157.5l35.27-35.29,13.12,13.12A24.88,24.88,0,0,0,448.53,149.84Zm62.09,18.21-12.2,12.2a8.61,8.61,0,0,1-12.19,0l-27.1-27.1a17.22,17.22,0,0,1-3.22-19.77l-24.67-24.67H416.87L394.66,79.09l14.81-14.81L439.09,86.5v14.37l24.67,24.67a17.17,17.17,0,0,1,19.76,3.22l27.1,27.09A8.66,8.66,0,0,1,510.62,168.05ZM415,168a5.56,5.56,0,1,0-5.55,5.55A5.55,5.55,0,0,0,415,168ZM465.7,117l-19-19a32.81,32.81,0,0,1,9.53-24,33.36,33.36,0,0,1,31.62-8.77A2.8,2.8,0,0,1,489.17,70L472,87.17l2.61,15.71,15.72,2.62,17.21-17.22a2.77,2.77,0,0,1,4.65,1.27,33.28,33.28,0,0,1-8.77,31.64A32.75,32.75,0,0,1,493.24,128l-4.49-4.49a24.36,24.36,0,0,0-17.33-7.18A25.18,25.18,0,0,0,465.7,117Z" transform="translate(-4.59 -4.47)"/><path class="cls-2" d="M124.79,51.86q7.44,11.42,7.43,27.3,0,16.38-7.49,26.32-4.2,5.59-12.35,10.19a36.82,36.82,0,0,1,18.7,15.78q6.3,10.78,6.31,26.2a56.48,56.48,0,0,1-7.21,28.51,48,48,0,0,1-11.47,14.07,42.75,42.75,0,0,1-18.29,9,101.78,101.78,0,0,1-22.88,2.42H4.59V32.82H82.83Q112.44,33.3,124.79,51.86Zm-87.91,12V103.3H76.23q10.55,0,17.12-4.43t6.58-15.71q0-12.5-8.7-16.5-7.5-2.79-19.13-2.79Zm0,69v47.68H76.19q10.53,0,16.4-3.16,10.64-5.82,10.64-22.32,0-13.95-10.32-19.17-5.76-2.91-16.18-3Z" transform="translate(-4.59 -4.47)"/><path class="cls-2" d="M161.71,51.5q19.56-22.08,49.77-22.08,40.43,0,59.11,29.6,10.34,16.62,11.09,33.36H247.85Q244.63,79.53,239.56,73q-9-11.64-26.79-11.64-18.08,0-28.52,16.43t-10.43,46.53q0,30.09,11,45.07t28,15q17.4,0,26.54-12.86,5-6.91,8.38-20.75h33.61Q277,180,259.13,198.29t-45.8,18.32q-34.56,0-54.34-24.75t-19.77-68.18Q139.22,76.85,161.71,51.5Z" transform="translate(-4.59 -4.47)"/><path class="cls-2" d="M732.79,37.43A40.49,40.49,0,0,1,748,49.92a57.18,57.18,0,0,1,8.14,15,54.87,54.87,0,0,1,3,18.81,58.07,58.07,0,0,1-5.82,25q-5.82,12.32-19.22,17.41,11.21,5,15.87,14.13t4.67,28v12q0,12.25.89,16.63,1.34,6.9,6.25,10.19v4.48H724.38c-1-4-1.76-7.15-2.19-9.58a96.38,96.38,0,0,1-1.43-15.41L720.54,170q-.21-17.1-5.35-22.8t-19.28-5.71h-33v70.12H629.81V32.82h77.44Q723.86,33.18,732.79,37.43ZM662.87,63.87v48h36.41q10.85,0,16.27-2.91,9.6-5.09,9.6-20.14,0-16.24-9.28-21.83-5.22-3.15-15.65-3.16Z" transform="translate(-4.59 -4.47)"/><path class="cls-2" d="M795.63,156.44q1.57,12.26,6.17,18.31,8.41,11,28.82,11,12.23,0,19.85-2.91,14.47-5.58,14.47-20.74a15.65,15.65,0,0,0-7.09-13.71q-7.08-4.74-22.48-8.37l-17.52-4.25q-25.85-6.3-35.51-13.71Q766,109.73,766,83.4q0-24,16-39.91T829,27.6q25.9,0,44.2,15T892.4,86.07H859.89q-.9-16.12-13.07-22.92-8.1-4.5-20.15-4.49-13.41,0-21.4,5.82t-8,16.26q0,9.58,7.88,14.31,5.07,3.15,21.51,7.4l28.41,7.4q18.69,4.86,28,13,14.48,12.62,14.48,36.52,0,24.5-17.15,40.7T832,216.24q-32,0-50.29-16t-18.32-43.85Z" transform="translate(-4.59 -4.47)"/></svg>